<?xml version="1.0" standalone="no"?>
<!DOCTYPE svg PUBLIC "-//W3C//DTD SVG 20010904//EN"
 "http://www.w3.org/TR/2001/REC-SVG-20010904/DTD/svg10.dtd">
<svg version="1.0" xmlns="http://www.w3.org/2000/svg"
 width="122.000000pt" height="122.000000pt" viewBox="0 0 122.000000 122.000000"
 preserveAspectRatio="xMidYMid meet">
<metadata>
Created by potrace 1.14, written by Peter Selinger 2001-2017
</metadata>
<g transform="translate(0.000000,122.000000) scale(0.100000,-0.100000)"
fill="#000000" stroke="none">
<path d="M525 1214 c-155 -40 -251 -90 -340 -179 -76 -76 -108 -129 -152 -245
-24 -64 -28 -90 -28 -175 0 -165 61 -310 180 -430 160 -159 394 -221 590 -156
113 38 184 81 260 156 118 118 180 265 180 425 0 160 -62 307 -180 425 -112
112 -252 174 -405 180 -47 2 -94 2 -105 -1z m160 -451 c162 -82 295 -150 295
-153 0 -5 -585 -300 -595 -300 -3 0 -5 135 -5 300 0 165 2 300 5 300 3 0 138
-66 300 -147z"/>
</g>
</svg>
